<?xml version="1.0" encoding="utf-8"?>
<!-- Generator: Adobe Illustrator 21.0.2, SVG Export Plug-In . SVG Version: 6.00 Build 0)  -->
<svg version="1.1" id="Layer_1" xmlns="http://www.w3.org/2000/svg" xmlns:xlink="http://www.w3.org/1999/xlink" x="0px" y="0px"
	 viewBox="0 0 149.3 137.3" style="enable-background:new 0 0 149.3 137.3;" xml:space="preserve">
<style type="text/css">
	.st0{fill:#202020;}
</style>
<title>icon_concierge</title>
<path class="st0" d="M93.8,113.4c2.4-4,1-9.2-3-11.6c-3.4-16.3-16.2-28.9-32.5-32.2v-2.3c0-1.5-0.4-3-1.2-4.3c2-0.9,3.3-2.9,3.3-5.1
	v-3.2c0-3-2.5-5.5-5.5-5.5h-10c-3,0-5.5,2.5-5.5,5.5v3.1c0,2.2,1.3,4.2,3.3,5.1c-0.8,1.3-1.3,2.8-1.3,4.4v2.2
	c-16.3,3.4-29,16.1-32.4,32.4c-2.6,1.5-4.2,4.2-4.2,7.2c0,1.5,0.4,3,1.2,4.3c-3.6,1.1-6,4.5-6,8.2v7.2c0.1,4.7,3.8,8.4,8.5,8.5h82.8
	c4.7,0,8.5-3.8,8.5-8.5v-7.2C99.8,117.8,97.4,114.5,93.8,113.4z M9.4,109.1c0-2.2,1.7-3.9,3.9-3.9h0h73.3c2.2,0,4,1.8,4,3.9
	c0,2.2-1.8,4-4,4H13.3c-2.2,0-3.9-1.7-3.9-3.9C9.4,109.2,9.4,109.1,9.4,109.1z M43.9,54.7c0-0.6,0.4-1,1-1h9.9c0.6,0,1,0.4,1,1v3.1
	c0,0.6-0.4,1-1,1h-9.9c-0.6,0-1-0.4-1-1V54.7z M46,67.3c0.1-2.1,1.8-3.8,3.9-3.9c2.2,0,3.9,1.7,3.9,3.9l0,0v1.6l-3.9-0.2L46,68.9
	V67.3z M49.9,73.2c16.8,0,31.6,11.3,36,27.5H14C18.4,84.5,33.1,73.2,49.9,73.2z M95.4,128.7c-0.1,2.2-1.8,3.9-4,4H8.5
	c-2.2-0.1-3.9-1.8-4-4v-7.2c0-2.2,1.8-4,4-4h82.8c2.2,0,4,1.8,4,4L95.4,128.7z"/>
<path class="st0" d="M60.3,96.3c1.2-0.1,2.2-1.1,2.2-2.3c0-1.2-1-2.2-2.2-2.2c-1.2-0.1-2.2,0.9-2.3,2.1c0,0,0,0.1,0,0.1
	C58,95.3,59,96.3,60.3,96.3C60.3,96.3,60.3,96.3,60.3,96.3z"/>
<path class="st0" d="M68.2,96.3h8.1c1.2-0.1,2.2-1.1,2.2-2.3c0-1.2-1-2.2-2.2-2.2h-8.1c-1.2-0.1-2.2,0.9-2.3,2.1c0,0,0,0.1,0,0.1
	C65.9,95.3,66.9,96.3,68.2,96.3z"/>
<path class="st0" d="M149.2,39.6c-0.4-1.2-1.6-1.8-2.8-1.4c0,0,0,0,0,0c-12.9,4.3-16.1,8.1-19.2,11.7c-1.8,2.2-3.9,4-6.4,5.4
	c-10.9,6.1-26.7,3.6-41.7,1.2l-5-0.7c-5.1-0.8-7.6-2.3-8.5-4c-0.3-0.6-0.4-1.3-0.3-2c0.1-0.8,0.3-1.5,0.7-2.2
	c0.8-1.4,1.8-2.4,2.5-2.4h6.8c9.9,0.3,20.9,0.7,22.4-4.4c1-3.3-0.7-6.4-5.4-9.2L91,30.9c-0.4-0.5-0.9-0.8-1.5-0.9h-0.4
	c-5.2-2.3-10.6-4.1-16.1-5.6c-13.4-3.8-31.8,1.7-42.8,5.1c-2.6,1-5.3,1.7-8,2.1c-5.3,0-9.9-1.4-12.5-3.2c-0.6-0.4-1.1-0.9-1.5-1.5
	v-0.6c0.3-0.6,1.4-1.3,3.2-2c10-3.5,18.2-6.9,25.3-9.8C59.1,5.2,70.4,0.6,98.5,8.3l5.9,1.8c8.4,2.8,17.3,5.8,25.4,1.4l7.6-4.3
	c1-0.5,1.5-1.8,0.9-2.8c0,0,0-0.1,0-0.1c-0.6-1.1-1.9-1.5-3-0.9c0,0,0,0,0,0l-7.6,4.3c-6.4,3.5-14.4,0.8-21.9-1.7l-6.1-1.8
	C70.2-4,58.3,0.8,35.1,10.4c-7,2.9-15.1,6.2-25.2,9.8c-2.9,1-4.6,2.4-5.5,3.9c-0.7,1.4-0.8,3-0.1,4.4c0.6,1.3,1.5,2.4,2.7,3.3
	c3.2,2.4,8.9,4.2,15.1,4.2c2.5-0.3,4.9-0.8,7.3-1.7c2.7,2.6,6,4.3,9.6,5c4.4,1,9.1,1,13.5-0.1h0.2c2.9,1.8,6.1,2.9,9.5,3.2l2.5,0.2
	c-1,0.8-1.9,1.9-2.5,3c-0.7,1.2-1.1,2.5-1.2,3.8c-0.1,1.5,0.2,3.1,0.9,4.4c1.5,2.8,5,5.2,11.7,6.2l5,0.7c15.8,2.5,32.3,5.2,44.5-1.6
	c3-1.6,5.5-3.8,7.6-6.5c2.7-3.1,5.4-6.5,17.2-10.4C149,41.8,149.5,40.7,149.2,39.6z M93.7,39.6c-0.6,1.8-9.2,1.6-17.3,1.3
	c9.4-2.9,14.9-3.4,16.5-3.5S93.9,39,93.7,39.6L93.7,39.6z M40.1,35c-2-0.4-3.9-1.2-5.7-2.3c10.7-3.2,26.4-7.4,37.5-4.2l4.1,1.2
	L68.8,31c-6.1,1.2-12.7,2.8-17.3,3.9C47.8,35.8,43.9,35.9,40.1,35z M59.7,37.4l10-2.2c5.9-1.2,11.3-2,13.7-1.6l2.8,0.4
	c-3.8,0.7-7.6,1.6-11.3,2.8c-3.9,1.3-8,1.7-12,1.2L59.7,37.4z"/>
</svg>
