<svg fill="#000000" xmlns="http://www.w3.org/2000/svg" xmlns:xlink="http://www.w3.org/1999/xlink" viewBox="0 0 56 60" version="1.1" x="0px" y="0px"><title>14 -Bellhop- (Outline)</title><desc>Created with Sketch.</desc><g stroke="none" stroke-width="1" fill="none" fill-rule="evenodd"><g transform="translate(-482.000000, -522.000000)" stroke="#000000" stroke-width="2"><g transform="translate(483.000000, 523.000000)"><path d="M12.0079,55 C12.0079,53.343 10.6649,52 9.0079,52 C7.3509,52 6.0079,53.343 6.0079,55 C6.0079,56.657 7.3509,58 9.0079,58 C10.6649,58 12.0079,56.657 12.0079,55 L12.0079,55 Z"/><path d="M48.0079,55 C48.0079,53.343 46.6649,52 45.0079,52 C43.3509,52 42.0079,53.343 42.0079,55 C42.0079,56.657 43.3509,58 45.0079,58 C46.6649,58 48.0079,56.657 48.0079,55 L48.0079,55 Z"/><path d="M0.0079,52 L54.0079,52" stroke-linecap="round" stroke-linejoin="round"/><polygon stroke-linecap="round" stroke-linejoin="round" points="8.008 52 32.008 52 32.008 37 8.008 37"/><path d="M8.0079,42 L8.0079,42 L8.0079,37 L13.0079,37 C13.0079,39.761 10.7689,42 8.0079,42 L8.0079,42 Z" stroke-linecap="round" stroke-linejoin="round"/><path d="M27.0079,37 L27.0079,37 L32.0079,37 L32.0079,42 C29.2469,42 27.0079,39.761 27.0079,37 L27.0079,37 Z" stroke-linecap="round" stroke-linejoin="round"/><path d="M32.0079,47 L32.0079,47 L32.0079,52 L27.0079,52 C27.0079,49.239 29.2469,47 32.0079,47 L32.0079,47 Z" stroke-linecap="round" stroke-linejoin="round"/><path d="M13.0079,52 L13.0079,52 L8.0079,52 L8.0079,47 L8.0079,47 C10.7689,47 13.0079,49.239 13.0079,52 L13.0079,52 Z" stroke-linecap="round" stroke-linejoin="round"/><polygon stroke-linecap="round" stroke-linejoin="round" points="24.0079 37 10.0829 37 12.0079 23 22.0079 23"/><path d="M20.0079,23 L14.0079,23 L14.0079,19.633 C14.0079,18.731 14.7389,18 15.6409,18 L18.3749,18 C19.2769,18 20.0079,18.731 20.0079,19.633 L20.0079,23 L20.0079,23 Z" stroke-linecap="round" stroke-linejoin="round"/><polygon stroke-linecap="round" stroke-linejoin="round" points="19.0079 28 15.0079 28 12.0079 23 22.0079 23"/><polygon stroke-linecap="round" stroke-linejoin="round" points="33.008 24 41.008 24 41.008 14 33.008 14"/><path d="M31.0079,14 L43.0079,14" stroke-linecap="round" stroke-linejoin="round"/><polygon stroke-linecap="round" stroke-linejoin="round" points="32.008 32 42.008 32 42.008 28 32.008 28"/><path d="M43.0079,24 L30.8989,24 C29.3019,24 28.0079,25.294 28.0079,26.891 L28.0079,37 L32.0079,37 L32.0079,52 L43.1169,52 C44.7139,52 46.0079,50.706 46.0079,49.109 L46.0079,27 C46.0079,25.343 44.6649,24 43.0079,24 L43.0079,24 Z" stroke-linecap="round" stroke-linejoin="round"/><path d="M4.0079,20 C4.0079,13.4 9.4079,8 16.0079,8 L38.0079,8 C44.6079,8 50.0079,13.4 50.0079,20 L50.0079,52 L4.0079,52 L4.0079,20 L4.0079,20 Z" stroke-linecap="round" stroke-linejoin="round"/><path d="M34.0079,8 L20.0079,8 L20.0079,5.004 C20.0079,4.45 20.4579,4 21.0119,4 L33.0039,4 C33.5579,4 34.0079,4.45 34.0079,5.004 L34.0079,8 L34.0079,8 Z" stroke-linecap="round" stroke-linejoin="round"/><path d="M30.0079,4 L24.0079,4 L24.0079,3 C24.0079,1.343 25.3509,0 27.0079,0 L27.0079,0 C28.6649,0 30.0079,1.343 30.0079,3 L30.0079,4 L30.0079,4 Z" stroke-linecap="round" stroke-linejoin="round"/></g></g></g></svg>