<?xml version="1.0" encoding="utf-8"?>
<!-- Generator: Adobe Illustrator 21.0.2, SVG Export Plug-In . SVG Version: 6.00 Build 0)  -->
<svg version="1.1" id="Capa_1" xmlns="http://www.w3.org/2000/svg" xmlns:xlink="http://www.w3.org/1999/xlink" x="0px" y="0px"
	 viewBox="0 0 470 470" style="enable-background:new 0 0 470 470;" xml:space="preserve">
<style type="text/css">
	.st0{fill:#202020;}
</style>
<g>
	<path class="st0" d="M467.8,114.8L355.2,2.2c-2.4-2.4-6.2-2.9-9.1-1.2c-2.9,1.7-4.4,5.2-3.4,8.5c11.7,41.2,0.1,85.6-30.2,116
		l-62.8,62.8c0,0-14.1,14.1-14.1,14.1l-1.8-1.8c-2.9-2.9-7.7-2.9-10.6,0l-5.4,5.4l-10.6-10.6l4-4c2.9-2.9,2.9-7.7,0-10.6
		c-2.9-2.9-7.7-2.9-10.6,0l-18.5,18.5c-2.9,2.9-2.9,7.7,0,10.6c1.5,1.5,3.4,2.2,5.3,2.2s3.8-0.7,5.3-2.2l4-4l10.6,10.6l-5.4,5.4
		c-2.9,2.9-2.9,7.7,0,10.6l1.8,1.8l-7.2,7.2l-1.8-1.8c-2.9-2.9-7.7-2.9-10.6,0l-5.4,5.4l-10.6-10.6l4-4c2.9-2.9,2.9-7.7,0-10.6
		c-2.9-2.9-7.7-2.9-10.6,0l-18.5,18.5c-2.9,2.9-2.9,7.7,0,10.6c1.5,1.5,3.4,2.2,5.3,2.2c1.9,0,3.8-0.7,5.3-2.2l4-4l10.6,10.6
		l-5.4,5.4c-2.9,2.9-2.9,7.7,0,10.6l1.8,1.8l-7.2,7.2l-1.8-1.8c-1.4-1.4-3.3-2.2-5.3-2.2s-3.9,0.8-5.3,2.2l-5.4,5.4l-10.6-10.6l4-4
		c2.9-2.9,2.9-7.7,0-10.6c-2.9-2.9-7.7-2.9-10.6,0l-18.5,18.5c-2.9,2.9-2.9,7.7,0,10.6c1.5,1.5,3.4,2.2,5.3,2.2s3.8-0.7,5.3-2.2l4-4
		l10.6,10.6l-5.4,5.4c-2.9,2.9-2.9,7.7,0,10.6l1.8,1.8L14.6,423.4l-1.8-1.8c-2.9-2.9-7.7-2.9-10.6,0c-2.9,2.9-2.9,7.7,0,10.6
		l35.6,35.6c1.5,1.5,3.4,2.2,5.3,2.2s3.8-0.7,5.3-2.2c2.9-2.9,2.9-7.7,0-10.6l-1.8-1.8l49.6-49.6c3.5,8.1,8.6,15.6,14.9,21.9
		c13.5,13.5,31.4,20.9,50.4,20.9s36.9-7.4,50.4-20.9l14.1-14.1l8.9,8.9c1.4,1.4,3.3,2.2,5.3,2.2s3.9-0.8,5.3-2.2l21.4-21.4
		c1.4-1.4,2.2-3.3,2.2-5.3s-0.8-3.9-2.2-5.3l-8.9-8.9l7.2-7.2l8.9,8.9c1.5,1.5,3.4,2.2,5.3,2.2s3.8-0.7,5.3-2.2l21.4-21.4
		c2.9-2.9,2.9-7.7,0-10.6l-8.9-8.9l7.2-7.2l8.9,8.9c1.5,1.5,3.4,2.2,5.3,2.2s3.8-0.7,5.3-2.2l21.4-21.4c2.9-2.9,2.9-7.7,0-10.6
		l-8.9-8.9l14.1-14.1c27.8-27.8,27.8-73,0-100.8c-6.4-6.4-13.8-11.4-21.9-14.9l15.8-15.8c30.3-30.3,74.8-41.9,116-30.2
		c3.3,0.9,6.8-0.5,8.5-3.4C470.7,120.9,470.2,117.2,467.8,114.8z M333.9,146.9l-21.6,21.6c-4-0.7-8-1.1-12.2-1.1c-3,0-6,0.2-8.9,0.6
		l31.8-31.8c28.2-28.2,42-67.3,38.5-106.3l78.5,78.5C401.2,104.8,362.1,118.7,333.9,146.9z M121.8,417.1
		c-6.5-6.5-11.2-14.3-13.9-22.9l12.9-12.9c0.9,9.1,4.8,18,11.8,25c8,8,18.5,12,29,12s21-4,29-12l14.1-14.1l10.8,10.8l-14.1,14.1
		c-10.6,10.6-24.8,16.5-39.8,16.5S132.4,427.7,121.8,417.1z M25.2,434l110.7-110.7l10.8,10.8l-14.1,14.1c0,0-96.5,96.5-96.5,96.5
		L25.2,434z M143.1,358.8l14.1-14.1l36.8,36.8L180,395.7c-10.2,10.2-26.7,10.2-36.8,0C133,385.5,133,369,143.1,358.8z M231.4,397.6
		c0,0-92-92-92-92l10.8-10.8l101,101l-10.8,10.8L231.4,397.6z M228.4,273.6l7.2-7.2l36.8,36.8l-7.2,7.2L228.4,273.6z M225,255.8
		l-7.2,7.2L207,252.2l7.2-7.2L225,255.8z M189.2,312.7l7.2-7.2l36.8,36.8l-7.2,7.2L189.2,312.7z M185.8,294.9l-7.2,7.2l-10.8-10.8
		l7.2-7.2L185.8,294.9z M236.7,360.2l7.2-7.2l10.8,10.8l-7.2,7.2L236.7,360.2z M178.6,266.4l10.8-10.8l1.8,1.8
		c0,0,99.1,99.1,99.1,99.1l-10.8,10.8L178.6,266.4z M275.9,321l7.2-7.2l10.8,10.8l-7.2,7.2L275.9,321z M217.7,227.3l10.8-10.8
		l101,101l-10.8,10.8L217.7,227.3z M267.6,234.4l14.1-14.1c10.2-10.2,26.7-10.2,36.8,0c10.2,10.2,10.2,26.7,0,36.8l-14.1,14.1
		L267.6,234.4z M315.1,281.8l14.1-14.1c16-16,16-42.1,0-58.1c-7.7-7.7-18.1-12-29-12s-21.3,4.3-29,12L257,223.8L246.2,213l14.1-14.1
		c10.6-10.6,24.8-16.5,39.8-16.5s29.2,5.9,39.8,16.5c21.9,21.9,21.9,57.6,0,79.6l-14.1,14.1L315.1,281.8z"/>
</g>
</svg>
