<svg xmlns="http://www.w3.org/2000/svg" viewBox="0 0 936 345.9"><defs><style>.a{fill:#fff;}</style></defs><title>logo_small-white</title><path class="a" d="M697.7,344.6v-1.3c0-8.5,3.8-16.5,19.4-26.4,8.8-5.7,12.4-9.2,12.4-15.5s-4.1-10.6-11.1-10.6-10.9,3.3-14.4,9.7l-5.4-3.3c4.3-7.8,11-12.6,20.2-12.6,10.9,0,17.6,6.7,17.6,16.3,0,7.7-3.5,13-14.8,20.2s-15.3,12.3-15.9,17.4h31.1v6.2Z"/><path class="a" d="M765.4,315.1c0-18.4,8.1-30.6,22.2-30.6s22.1,12.2,22.1,30.6-7.9,30.6-22.1,30.6S765.4,333.5,765.4,315.1Zm37.4,0c0-16-5.9-24.4-15.1-24.4s-15.2,8.4-15.2,24.4,5.9,24.5,15.2,24.5S802.7,331.1,802.7,315.1Z"/><path class="a" d="M838.9,344.6v-6.2H850V293a26.6,26.6,0,0,1-10.9,2.7v-6.2c4.5-.2,8.6-1.4,11.2-3.8h6.5v52.7h9.9v6.2Z"/><path class="a" d="M893,330.2c0-8.1,5.9-12.8,15.1-16.7-7.7-3.6-12.4-7.3-12.4-14.6s6.9-14.5,18.9-14.5,18.7,7.2,18.7,14.5-4.5,10.8-12.5,14.3c9.6,4.1,15.2,8.3,15.2,17s-7.9,15.7-21.4,15.7S893,339,893,330.2Zm36.1-.4c0-6.2-5.3-9.6-15-13.7-9.6,4.3-14.1,7.8-14.1,13.7s6,10.3,14.6,10.3S929.1,336.1,929.1,329.8Zm-2.5-30.5c0-4.5-3.7-9-11.9-9s-12,4.3-12,8.8,3.9,8,12.3,11.6C923.1,307,926.5,304.4,926.5,299.3Z"/><path class="a" d="M628,.3V218.9A109.6,109.6,0,0,0,628,.3Z"/><rect class="a" x="519.8" y="227.2" width="100.3" height="34.95"/><polygon class="a" points="812.8 0 697.6 262.2 812.8 262.2 812.8 0"/><polygon class="a" points="820.8 0 820.8 262.2 936 262.2 820.8 0"/><polygon class="a" points="19.5 219.2 218.8 219.2 119.2 0 19.5 219.2"/><polygon class="a" points="15.9 227.2 0 262.2 238.4 262.2 222.5 227.2 15.9 227.2"/><polygon class="a" points="280.1 219.2 479.4 219.2 379.7 0 280.1 219.2"/><polygon class="a" points="483 227.2 276.4 227.2 260.5 262.2 498.9 262.2 483 227.2"/><rect class="a" x="519.8" width="100.3" height="219.24"/></svg>